<svg width="511" height="209" viewBox="0 0 511 209" fill="none" xmlns="http://www.w3.org/2000/svg">
<path d="M24.9161 162.059L27.4749 163.156L25.7919 167.083L47.8067 176.519L49.4898 172.593L52.0486 173.689L47.1886 185.028L34.9679 179.789L31.7153 187.378L41.3771 191.519L42.7576 188.299L45.3164 189.395L39.0759 203.954L36.5171 202.857L38.2001 198.931L16.1853 189.495L14.5023 193.421L11.9434 192.324L17.749 178.78L20.3078 179.877L19.3623 182.083L29.1565 186.281L32.4091 178.693L22.6149 174.495L21.6694 176.7L19.1105 175.604L24.9161 162.059Z" fill="#BBB082"/>
<path d="M64.3126 149.085L64.6419 148.555C64.7939 148.31 64.9324 148.057 65.0572 147.796L65.533 146.848L67.4899 148.064C67.2675 148.604 67.0399 149.122 66.8071 149.618C66.625 150.032 66.4125 150.465 66.1694 150.917C65.9264 151.368 65.7204 151.73 65.5515 152.002C64.7239 153.334 63.8544 154.188 62.9429 154.563C62.0314 154.939 61.1974 155.098 60.4409 155.043C60.8303 156.114 61.0112 157.187 60.9835 158.262C60.9455 159.293 60.614 160.312 59.9891 161.317C58.8406 163.166 57.648 164.327 56.4111 164.802C55.1471 165.26 53.6589 164.957 51.9466 163.893C51.3486 163.521 50.7778 163.166 50.2342 162.828C49.7075 162.464 49.2572 162.127 48.8833 161.819C48.4278 161.461 48.0267 161.137 47.68 160.846L51.2336 149.943C50.4285 149.48 49.6913 149.06 49.0221 148.682C48.3257 148.287 47.738 147.959 47.2591 147.699C46.6817 147.416 46.1671 147.153 45.7154 146.91C45.6375 146.974 45.5343 147.08 45.4058 147.226C45.2942 147.345 45.1403 147.532 44.9443 147.787C44.7482 148.042 44.5319 148.359 44.2955 148.74C44.1435 148.985 44.0135 149.224 43.9056 149.458C43.7705 149.676 43.6489 149.902 43.541 150.136C43.8709 150.454 44.2485 150.877 44.6738 151.405C45.072 151.916 45.3891 152.528 45.625 153.239C45.8337 153.934 45.9036 154.731 45.8347 155.63C45.7555 156.485 45.3951 157.429 44.7533 158.462L38.597 154.637C39.0559 153.716 39.5233 152.782 39.9991 151.835C40.4345 151.013 40.9037 150.136 41.4067 149.205C41.9097 148.275 42.423 147.388 42.9465 146.545C44.0443 144.779 45.0552 143.485 45.9791 142.666C46.9198 141.819 47.9176 141.365 48.9724 141.304C50.044 141.217 51.2336 141.485 52.5412 142.109C53.8656 142.706 55.4383 143.57 57.2594 144.702L64.3126 149.085ZM58.5982 158.645C58.8001 158.017 58.7812 157.289 58.5416 156.462C58.2918 155.591 57.9163 154.68 57.4152 153.728L53.0935 151.042L52.0243 154.673C52.4254 154.997 52.8486 155.317 53.2937 155.631C53.7117 155.929 54.1382 156.212 54.5731 156.483C55.1167 156.82 55.6195 157.133 56.0815 157.42C56.5605 157.68 56.9935 157.893 57.3806 158.058C57.8052 158.284 58.2111 158.48 58.5982 158.645Z" fill="#BBB082"/>
<path d="M55.3147 129.9L57.1174 127.716L60.6576 121.24L62.9898 123.165C62.9142 121.899 63.0478 120.682 63.3905 119.513C63.7086 118.323 64.2649 117.247 65.0593 116.284C65.8945 115.272 66.7984 114.504 67.771 113.979C68.719 113.434 69.7524 113.187 70.8712 113.239C71.9857 113.246 73.2102 113.572 74.5449 114.218C75.8548 114.842 77.2872 115.797 78.842 117.08C80.4215 118.383 81.6443 119.642 82.5104 120.855C83.3519 122.047 83.8329 123.274 83.9536 124.535C84.0496 125.776 83.7873 127.074 83.1668 128.429C82.5667 129.76 81.6148 131.214 80.3111 132.794C79.9445 133.238 79.5633 133.65 79.1677 134.029C78.772 134.407 78.3866 134.774 78.0113 135.128L84.0084 140.078L77.378 148.111L75.49 146.553L77.2928 144.368L58.9684 129.244L57.1656 131.428L55.3147 129.9ZM66.6917 118.379C66.0194 119.193 65.6267 120.197 65.5135 121.389C65.4003 122.582 65.4818 123.791 65.758 125.014L76.2344 133.661C76.7041 133.344 77.1469 132.983 77.5629 132.58C77.979 132.176 78.3397 131.789 78.6453 131.419C79.1342 130.827 79.4842 130.327 79.6953 129.921C79.8336 129.703 79.929 129.512 79.9815 129.348C79.5157 128.756 78.978 128.125 78.3685 127.456C77.8373 126.893 77.195 126.239 76.4417 125.492C75.6638 124.726 74.7935 123.945 73.831 123.151C72.6464 122.173 71.6163 121.385 70.7408 120.787C69.8406 120.169 69.0885 119.672 68.4844 119.298C67.7613 118.867 67.1637 118.561 66.6917 118.379Z" fill="#BBB082"/>
<path d="M78.0579 103.376L80.1486 101.466L84.5603 95.5493L86.6001 97.7817C86.7024 96.5179 87.005 95.3311 87.5081 94.2212C87.9895 93.0878 88.6909 92.1001 89.6122 91.2583C90.5808 90.3733 91.5833 89.7389 92.6199 89.3553C93.6349 88.948 94.6926 88.8485 95.7931 89.0566C96.8956 89.2196 98.0625 89.7139 99.2937 90.5395C100.503 91.3414 101.788 92.4866 103.148 93.9748C104.529 95.4867 105.564 96.9037 106.252 98.2258C106.918 99.5242 107.223 100.806 107.166 102.072C107.087 103.314 106.646 104.563 105.842 105.818C105.061 107.051 103.915 108.358 102.403 109.74C101.978 110.128 101.543 110.483 101.098 110.802C100.654 111.122 100.221 111.431 99.7996 111.729L105.045 117.47L97.3555 124.496L95.7042 122.688L97.7949 120.778L81.7675 103.238L79.6769 105.148L78.0579 103.376ZM90.9354 93.5603C90.1559 94.2726 89.6266 95.2114 89.3475 96.3767C89.0685 97.5419 88.9801 98.7497 89.0823 100L98.2454 110.028C98.7549 109.779 99.2439 109.484 99.7123 109.143C100.181 108.802 100.592 108.469 100.946 108.145C101.513 107.627 101.93 107.182 102.196 106.809C102.363 106.612 102.484 106.437 102.559 106.281C102.181 105.63 101.737 104.931 101.227 104.183C100.78 103.551 100.235 102.813 99.5939 101.969C98.9309 101.101 98.1785 100.206 97.3366 99.2849C96.3005 98.151 95.3909 97.2266 94.6077 96.5118C93.8029 95.7734 93.1276 95.1767 92.5819 94.7217C91.9261 94.1939 91.3773 93.8067 90.9354 93.5603Z" fill="#BBB082"/>
<path d="M104.061 80.1729L106.357 78.5148L111.83 73.1406L123.465 89.2506L125.761 87.5925L127.194 89.5771L116.454 97.3335L115.021 95.349L117.317 93.6909L107.762 80.4605L105.466 82.1186L104.061 80.1729ZM101.972 72.4444C101.186 71.3549 100.838 70.382 100.93 69.526C101.004 68.6439 101.599 67.8001 102.714 66.9945C103.881 66.1514 104.882 65.843 105.717 66.0693C106.532 66.2696 107.334 66.9146 108.121 68.0041C108.926 69.1196 109.27 70.1148 109.152 70.9896C109.041 71.8197 108.441 72.6282 107.351 73.4151C106.236 74.2208 105.266 74.5457 104.443 74.3901C103.602 74.2085 102.778 73.5599 101.972 72.4444Z" fill="#BBB082"/>
<path d="M122.786 67.4584L125.26 66.0797L130.913 61.3352L132.549 64.2702C132.558 64.1552 132.603 63.8738 132.683 63.4261C132.763 62.9784 132.969 62.4607 133.301 61.8728C133.617 61.2569 134.11 60.5973 134.781 59.894C135.451 59.1906 136.373 58.5118 137.547 57.8575C138.19 57.4992 138.864 57.1968 139.57 56.9503C140.303 56.6882 141.021 56.5629 141.723 56.5744C142.438 56.5423 143.103 56.6844 143.719 57.0006C144.335 57.3168 144.869 57.8802 145.32 58.6908L152.588 71.7303L155.062 70.3516L156.253 72.4899L147.155 77.5607L137.948 61.0412C137.892 61.0724 137.801 61.1051 137.673 61.1395C137.418 61.2082 137.095 61.3517 136.704 61.5698C136.117 61.8969 135.656 62.3187 135.321 62.8351C134.998 63.308 134.755 63.7916 134.591 64.286C134.427 64.7804 134.327 65.2577 134.29 65.7177C134.266 66.1342 134.258 66.4497 134.268 66.6642L140.764 78.3201L143.238 76.9414L144.43 79.0797L132.858 85.5293L131.666 83.391L134.14 82.0122L126.428 68.1761L123.955 69.5548L122.786 67.4584Z" fill="#BBB082"/>
<path d="M164.408 45.5413C166.046 44.8976 167.465 44.5289 168.666 44.4351C169.855 44.3116 170.912 44.4636 171.837 44.8912C172.761 45.3187 173.58 46.0456 174.292 47.0721C174.993 48.0687 175.666 49.386 176.31 51.0241C176.508 51.5304 176.669 51.983 176.792 52.3819C176.902 52.751 176.989 53.0605 177.053 53.3105C177.141 53.62 177.199 53.8551 177.227 54.0157L166.193 58.352C166.62 59.3529 167.043 60.2528 167.46 61.0516C167.865 61.8206 168.23 62.4854 168.553 63.0459C168.953 63.7139 169.318 64.2925 169.648 64.7818C169.761 64.8063 169.912 64.7983 170.103 64.7578C170.263 64.7291 170.483 64.6769 170.763 64.6014C171.061 64.4843 171.433 64.3381 171.88 64.1625C172.624 63.8699 173.307 63.5502 173.927 63.2033C174.565 62.815 175.091 62.4023 175.503 61.965C175.916 61.5278 176.174 61.048 176.279 60.5257C176.401 59.962 176.339 59.3673 176.093 58.7419L178.506 57.7939C178.997 59.0448 179.101 60.1388 178.816 61.076C178.56 62.0014 178.092 62.8216 177.41 63.5365C176.746 64.2099 175.956 64.7785 175.038 65.2424C174.12 65.7063 173.244 66.102 172.41 66.4298C170.593 67.1437 168.974 67.5736 167.553 67.7195C166.15 67.8238 164.888 67.632 163.768 67.1438C162.666 66.6142 161.679 65.7644 160.807 64.5944C159.923 63.3946 159.106 61.8417 158.357 59.9356C157.608 58.0295 157.125 56.3627 156.908 54.9352C156.709 53.4662 156.838 52.1775 157.297 51.0691C157.743 49.9308 158.537 48.9314 159.677 48.0707C160.835 47.1686 162.412 46.3254 164.408 45.5413ZM163.293 48.6097C163.401 49.3234 163.548 50.0909 163.733 50.9121C163.913 51.6322 164.14 52.4714 164.413 53.4298C164.675 54.3584 165.016 55.3588 165.438 56.431L169.771 54.7281C169.22 53.5006 168.718 52.4428 168.266 51.5546C167.802 50.6367 167.388 49.8884 167.023 49.3098C166.611 48.612 166.232 48.0392 165.884 47.5915C165.783 47.5968 165.661 47.5931 165.518 47.5803C165.387 47.5974 165.227 47.6261 165.036 47.6665C164.876 47.6953 164.691 47.7506 164.483 47.8325C164.274 47.9145 164.101 47.9996 163.964 48.0879C163.827 48.1762 163.705 48.2586 163.597 48.3352C163.502 48.4416 163.4 48.5331 163.293 48.6097Z" fill="#BBB082"/>
<path d="M193.064 36.4014C193.776 36.2155 194.442 36.1078 195.063 36.0781C195.675 36.0174 196.234 36.0039 196.739 36.0375L199.669 34.5287L201.536 41.6811C200.359 41.9882 199.339 42.0724 198.476 41.9339C197.636 41.7563 196.919 41.4804 196.326 41.1062C195.724 40.701 195.226 40.2521 194.833 39.7594C194.463 39.2277 194.179 38.7727 193.981 38.3944L193.609 38.4914C193.331 38.5641 193.087 38.6442 192.878 38.7318C192.692 38.7803 192.526 38.8402 192.379 38.9116C192.233 38.9829 192.117 39.0462 192.032 39.1014C191.972 39.2495 191.935 39.4245 191.921 39.6265C191.9 39.7974 191.91 40.0263 191.951 40.313C191.993 40.5998 192.063 40.9289 192.16 41.3005C192.313 41.8888 192.5 42.3526 192.721 42.6918C192.942 43.031 193.209 43.2922 193.521 43.4752C193.864 43.6502 194.273 43.7585 194.747 43.8002C195.221 43.8419 195.807 43.8708 196.506 43.8868C197.398 43.8854 198.291 43.9499 199.185 44.0804C200.102 44.1718 200.954 44.3959 201.742 44.7525C202.53 45.1092 203.23 45.6375 203.842 46.3375C204.478 46.9985 204.941 47.8863 205.232 49.0009C205.555 50.2394 205.613 51.3487 205.406 52.3288C205.191 53.278 204.749 54.1208 204.081 54.8572C203.445 55.5856 202.566 56.2117 201.446 56.7356C200.365 57.2823 199.113 57.7415 197.689 58.1132C196.512 58.4203 195.505 58.6169 194.668 58.7032C193.869 58.8123 193.218 58.8501 192.713 58.8165L189.69 60.3495L187.702 52.7327C188.848 52.4337 189.86 52.3844 190.739 52.5849C191.618 52.7854 192.363 53.1037 192.973 53.5398C193.583 53.976 194.077 54.4754 194.455 55.0381C194.825 55.5698 195.114 56.0403 195.32 56.4495C195.513 56.432 195.688 56.403 195.843 56.3626L197.189 56.0111C197.468 55.9384 197.712 55.8582 197.92 55.7707C198.16 55.6751 198.384 55.5835 198.593 55.496C198.623 55.356 198.64 55.1695 198.645 54.9366C198.659 54.7347 198.641 54.4748 198.591 54.1571C198.572 53.8313 198.506 53.4517 198.393 53.0182C198.158 52.1203 197.709 51.4769 197.046 51.0879C196.413 50.6908 195.665 50.423 194.802 50.2844C193.931 50.1149 193.006 49.9925 192.027 49.9172C191.071 49.8029 190.146 49.6145 189.251 49.3521C188.347 49.0587 187.531 48.5937 186.803 47.957C186.097 47.2812 185.571 46.2777 185.223 44.9463C184.981 44.0174 184.918 43.141 185.033 42.3171C185.172 41.4541 185.529 40.6665 186.103 39.9543C186.709 39.2339 187.579 38.5769 188.714 37.9831C189.849 37.3892 191.299 36.862 193.064 36.4014Z" fill="#BBB082"/>
<path d="M221.208 30.865C221.937 30.762 222.611 30.7313 223.231 30.773C223.846 30.7829 224.403 30.8335 224.901 30.9248L227.984 29.7618L229.019 37.081C227.815 37.2512 226.792 37.218 225.951 36.9814C225.137 36.7087 224.456 36.3524 223.909 35.9127C223.358 35.4412 222.915 34.9382 222.581 34.4037C222.274 33.833 222.044 33.3485 221.891 32.95L221.51 33.0037C221.225 33.044 220.974 33.0957 220.757 33.1587C220.566 33.1856 220.394 33.2261 220.24 33.2802C220.087 33.3342 219.964 33.3838 219.874 33.429C219.797 33.5691 219.74 33.7388 219.703 33.9378C219.662 34.1052 219.646 34.3337 219.655 34.6234C219.663 34.913 219.695 35.2479 219.748 35.6282C219.833 36.2302 219.966 36.7123 220.147 37.0746C220.327 37.437 220.562 37.7269 220.851 37.9446C221.172 38.1578 221.566 38.3122 222.032 38.4079C222.498 38.5037 223.077 38.5996 223.769 38.6956C224.656 38.7965 225.536 38.963 226.409 39.1951C227.309 39.391 228.13 39.7113 228.872 40.1559C229.613 40.6005 230.248 41.2056 230.777 41.9712C231.332 42.7006 231.69 43.6356 231.852 44.7763C232.031 46.0437 231.961 47.1523 231.643 48.1022C231.32 49.0204 230.785 49.8071 230.038 50.4621C229.322 51.1128 228.377 51.634 227.205 52.026C226.068 52.4452 224.771 52.7578 223.313 52.9638C222.109 53.134 221.087 53.2139 220.245 53.2036C219.439 53.2205 218.788 53.1834 218.29 53.0921L215.111 54.2686L214.01 46.474C215.182 46.3083 216.193 46.3754 217.044 46.6754C217.894 46.9753 218.597 47.3769 219.153 47.88C219.709 48.3832 220.143 48.9359 220.454 49.5383C220.761 50.109 220.993 50.6094 221.151 51.0395C221.345 51.0443 221.522 51.0356 221.68 51.0132L223.059 50.8184C223.344 50.778 223.595 50.7264 223.812 50.6633C224.061 50.5958 224.295 50.5306 224.512 50.4675C224.557 50.3318 224.596 50.1486 224.628 49.9178C224.665 49.7188 224.676 49.4586 224.663 49.1373C224.682 48.8114 224.66 48.4267 224.597 47.9832C224.467 47.0643 224.095 46.3736 223.48 45.9111C222.897 45.4441 222.185 45.0923 221.343 44.8557C220.497 44.5875 219.593 44.3599 218.629 44.1729C217.693 43.9497 216.795 43.6565 215.935 43.2932C215.072 42.8982 214.314 42.3427 213.664 41.6267C213.04 40.8746 212.632 39.8172 212.44 38.4548C212.306 37.5042 212.343 36.6263 212.552 35.8211C212.789 34.9797 213.234 34.2382 213.886 33.5966C214.571 32.9504 215.51 32.3975 216.706 31.9376C217.901 31.4778 219.402 31.1203 221.208 30.865Z" fill="#BBB082"/>
<path d="M265.979 20.4989C267.003 20.5403 267.927 20.6578 268.751 20.8512C269.61 21.0141 270.354 21.2203 270.984 21.47L275.529 20.7411L275.134 30.5251C272.834 30.368 271.006 29.6375 269.65 28.3337C268.293 27.0298 267.547 25.2862 267.411 23.1029C266.777 22.9492 266.028 22.8548 265.165 22.8199C264.845 22.807 264.573 22.812 264.348 22.8349C264.155 22.8591 263.977 22.884 263.816 22.9095L263.333 22.986C263.194 23.2366 263.07 23.5359 262.96 23.8837C262.885 24.1689 262.806 24.518 262.726 24.9311C262.646 25.3122 262.597 25.7425 262.577 26.2221C262.509 27.9167 262.826 29.1786 263.529 30.0077C264.264 30.8381 265.468 31.5593 267.141 32.1714C268.118 32.5632 269.123 33.0522 270.156 33.6384C271.19 34.1927 272.124 34.871 272.956 35.6733C273.82 36.4768 274.503 37.4172 275.004 38.4943C275.538 39.5407 275.778 40.7194 275.725 42.0304C275.591 45.3556 274.469 47.7603 272.359 49.2442C270.251 50.6962 267.358 51.3478 263.681 51.1991C262.114 51.1358 260.871 50.9894 259.952 50.7601C259.031 50.5627 258.318 50.3737 257.813 50.1932L253.753 50.7976L254.188 40.0544C255.433 40.1368 256.527 40.4212 257.468 40.9076C258.41 41.3621 259.202 41.9706 259.844 42.7332C260.486 43.4957 260.978 44.3803 261.322 45.3871C261.665 46.3938 261.845 47.4899 261.861 48.6755C262.116 48.7179 262.355 48.7435 262.579 48.7526L263.394 48.7856C263.714 48.7985 264.05 48.8121 264.401 48.8263C264.786 48.8099 265.139 48.7921 265.46 48.7731C265.813 48.7553 266.182 48.7382 266.567 48.7218C266.672 48.5018 266.78 48.2179 266.89 47.8701C266.966 47.5849 267.044 47.2198 267.127 46.7748C267.209 46.3297 267.263 45.7874 267.288 45.148C267.345 43.7411 267.055 42.6085 266.417 41.75C265.78 40.8595 264.963 40.0899 263.964 39.441C262.966 38.7921 261.885 38.1879 260.723 37.6285C259.593 37.0704 258.53 36.4189 257.535 35.6741C256.541 34.9293 255.729 34.0157 255.1 32.9334C254.471 31.8512 254.191 30.4627 254.26 28.7681C254.31 27.5211 254.548 26.3778 254.975 25.3382C255.401 24.2986 256.062 23.4125 256.956 22.6801C257.883 21.9169 259.076 21.3406 260.533 20.9512C262.022 20.563 263.837 20.4123 265.979 20.4989Z" fill="#BBB082"/>
<path d="M288.943 28.7569L296.756 27.9074L296.087 32.1266L301.775 33.0297L301.399 35.4L295.71 34.4969L293.084 51.0418L294.079 51.1998C295.912 51.4908 297.05 50.2457 297.491 47.4645L299.909 47.8483C299.748 48.8597 299.54 49.7662 299.283 50.5678C299.058 51.3745 298.644 52.0379 298.043 52.5581C297.474 53.0833 296.674 53.4262 295.645 53.5867C294.646 53.7522 293.294 53.6995 291.587 53.4286C290.418 53.243 289.442 52.9585 288.661 52.5753C287.884 52.1604 287.278 51.6916 286.843 51.1688C286.407 50.6461 286.122 50.0986 285.986 49.5262C285.85 48.9538 285.827 48.3831 285.917 47.8143L288.943 28.7569Z" fill="#BBB082"/>
<path d="M325.455 58.6877L326.056 58.8542C326.333 58.9311 326.615 58.9926 326.901 59.0386L327.945 59.2279L327.33 61.4484C326.749 61.3871 326.188 61.3148 325.647 61.2312C325.198 61.1733 324.722 61.0915 324.22 60.9857C323.718 60.8798 323.313 60.7842 323.005 60.6988C321.494 60.2803 320.43 59.6867 319.812 58.9181C319.195 58.1495 318.807 57.3943 318.647 56.6528C317.729 57.3284 316.751 57.8044 315.711 58.081C314.711 58.3353 313.64 58.3044 312.499 57.9884C310.402 57.4076 308.952 56.5908 308.147 55.5379C307.352 54.4543 307.223 52.941 307.761 50.9981C307.949 50.3197 308.128 49.672 308.299 49.0553C308.501 48.447 308.697 47.9201 308.886 47.4746C309.102 46.9366 309.3 46.4603 309.481 46.0456L320.944 46.3812C321.16 45.4783 321.356 44.6526 321.53 43.9039C321.713 43.1244 321.861 42.4682 321.976 41.9354C322.085 41.3015 322.192 40.7336 322.298 40.2317C322.214 40.1752 322.084 40.1059 321.907 40.0238C321.762 39.9503 321.539 39.8554 321.239 39.7391C320.939 39.6229 320.574 39.505 320.142 39.3854C319.864 39.3085 319.598 39.2513 319.343 39.2139C319.096 39.1455 318.845 39.0926 318.59 39.0551C318.378 39.4612 318.078 39.9428 317.691 40.4998C317.313 41.0259 316.816 41.5025 316.2 41.9295C315.592 42.3257 314.847 42.6174 313.965 42.8048C313.122 42.9699 312.115 42.8901 310.943 42.5656L312.878 35.5805C313.89 35.7613 314.918 35.9464 315.962 36.1357C316.873 36.3217 317.846 36.5248 318.881 36.745C319.916 36.9652 320.911 37.2077 321.867 37.4725C323.872 38.0276 325.397 38.6329 326.444 39.2881C327.522 39.9519 328.239 40.7813 328.594 41.7762C328.981 42.7797 329.059 43.9967 328.828 45.4271C328.629 46.8661 328.243 48.6187 327.671 50.685L325.455 58.6877ZM314.671 55.9004C315.331 55.917 316.023 55.6938 316.749 55.2308C317.515 54.7454 318.283 54.1282 319.055 53.3791L320.413 48.4757L316.629 48.4734C316.43 48.9497 316.243 49.4458 316.067 49.9615C315.9 50.4464 315.748 50.9355 315.611 51.429C315.44 52.0457 315.282 52.6163 315.137 53.1405C315.022 53.6733 314.941 54.1487 314.891 54.5667C314.794 55.0378 314.721 55.4824 314.671 55.9004Z" fill="#BBB082"/>
<path d="M341.329 44.803L343.946 45.8835L351.177 47.3621L350.005 50.2017C350.071 50.1252 350.248 49.9905 350.536 49.7975C350.865 49.5872 351.297 49.4196 351.834 49.2947C352.412 49.1525 353.09 49.1034 353.868 49.1476C354.687 49.1744 355.63 49.4076 356.694 49.8471C357.345 50.1157 357.842 50.338 358.185 50.5141C358.557 50.7024 358.841 50.8541 359.035 50.9691C359.26 51.0964 359.396 51.187 359.443 51.241L355.908 59.8042C354.843 59.3647 354.041 58.7914 353.502 58.0843C352.963 57.3771 352.6 56.6214 352.413 55.8171C352.226 55.0128 352.154 54.2217 352.198 53.4437C352.242 52.6657 352.33 51.9921 352.461 51.4231C352.134 51.4611 351.797 51.5644 351.45 51.7329C351.116 51.8719 350.784 52.0465 350.455 52.2569C350.168 52.4498 349.895 52.6489 349.637 52.8541C349.392 53.0297 349.209 53.1792 349.089 53.3027L343.998 65.6373L346.615 66.7178L345.681 68.9806L333.436 63.9261L334.37 61.6632L336.987 62.7437L343.031 48.1019L340.413 47.0214L341.329 44.803Z" fill="#BBB082"/>
<path d="M370.339 54.3178L377.988 56.1258L375.948 59.8793L381.009 62.6298L379.862 64.7385L374.802 61.988L366.802 76.7067L367.688 77.188C369.319 78.0743 370.806 77.2803 372.151 74.8061L374.302 75.9751C373.813 76.8748 373.314 77.6596 372.804 78.3295C372.322 79.0147 371.711 79.5021 370.971 79.7918C370.259 80.0968 369.391 80.153 368.366 79.9605C367.37 79.7832 366.113 79.282 364.595 78.4569C363.554 77.8915 362.73 77.2977 362.121 76.6755C361.527 76.0252 361.113 75.3809 360.877 74.7428C360.641 74.1047 360.554 73.4932 360.617 72.9082C360.68 72.3233 360.849 71.7778 361.124 71.2717L370.339 54.3178Z" fill="#BBB082"/>
<path d="M397.939 73.2742C398.545 73.6924 399.061 74.1268 399.489 74.5776C399.935 75.002 400.31 75.4163 400.614 75.8207L403.669 77.0552L399.47 83.1385C398.469 82.4477 397.74 81.7302 397.281 80.986C396.867 80.2337 396.608 79.5105 396.504 78.8165C396.418 78.0961 396.434 77.4262 396.55 76.8067C396.711 76.1791 396.87 75.6669 397.028 75.27L396.712 75.0518C396.475 74.8882 396.255 74.756 396.052 74.655C395.894 74.546 395.74 74.4591 395.591 74.3946C395.441 74.33 395.317 74.2836 395.22 74.2554C395.068 74.3062 394.912 74.3925 394.75 74.5141C394.606 74.6094 394.44 74.7665 394.25 74.9853C394.06 75.2042 393.856 75.4716 393.637 75.7876C393.292 76.288 393.063 76.7325 392.95 77.1212C392.837 77.51 392.814 77.8824 392.879 78.2385C392.97 78.6128 393.155 78.993 393.433 79.3792C393.711 79.7654 394.071 80.2284 394.515 80.7681C395.099 81.4433 395.633 82.1621 396.118 82.9244C396.647 83.6786 397.034 84.4704 397.278 85.2999C397.522 86.1294 397.579 87.0046 397.449 87.9256C397.363 88.8385 396.993 89.769 396.338 90.717C395.611 91.7704 394.809 92.5385 393.931 93.0214C393.071 93.4779 392.145 93.6937 391.151 93.6687C390.183 93.6619 389.136 93.4053 388.008 92.8988C386.888 92.4369 385.722 91.7877 384.511 90.9515C383.51 90.2607 382.704 89.6263 382.092 89.0483C381.488 88.5148 381.034 88.0459 380.73 87.6415L377.595 86.3525L382.067 79.8742C383.042 80.5468 383.74 81.2815 384.162 82.0784C384.584 82.8752 384.829 83.647 384.897 84.3937C384.965 85.1404 384.909 85.8407 384.73 86.4947C384.569 87.1223 384.4 87.6477 384.225 88.0709C384.365 88.2063 384.5 88.3195 384.632 88.4104L385.778 89.2012C386.015 89.3648 386.234 89.4971 386.437 89.598C386.666 89.7171 386.881 89.8271 387.084 89.928C387.209 89.859 387.362 89.7506 387.542 89.6026C387.704 89.4809 387.889 89.2975 388.097 89.0523C388.331 88.8254 388.576 88.5275 388.83 88.1588C389.357 87.3951 389.552 86.6349 389.413 85.8782C389.301 85.1396 389.015 84.3983 388.557 83.6541C388.117 82.8836 387.606 82.1031 387.024 81.3125C386.486 80.5138 386.025 79.6897 385.639 78.8402C385.272 77.9644 385.091 77.0428 385.098 76.0753C385.149 75.0998 385.566 74.0458 386.348 72.9134C386.893 72.1234 387.516 71.5032 388.215 71.053C388.959 70.5946 389.789 70.3506 390.704 70.3211C391.645 70.3097 392.711 70.54 393.901 71.0119C395.092 71.4839 396.438 72.238 397.939 73.2742Z" fill="#BBB082"/>
<path d="M451.961 111.306L449.955 113.237L446.992 110.16L429.74 126.776L432.704 129.853L430.698 131.784L422.141 122.899L431.718 113.675L425.99 107.729L418.419 115.021L420.85 117.545L418.844 119.476L407.856 108.067L409.861 106.136L412.825 109.213L430.077 92.5974L427.113 89.5205L429.118 87.5892L439.341 98.203L437.336 100.134L435.671 98.4056L427.996 105.798L433.723 111.744L441.398 104.352L439.733 102.623L441.738 100.692L451.961 111.306Z" fill="#BBB082"/>
<path d="M459.339 134.079C460.358 135.514 461.058 136.803 461.438 137.946C461.845 139.071 461.952 140.133 461.759 141.133C461.567 142.133 461.059 143.103 460.234 144.042C459.436 144.962 458.319 145.932 456.884 146.952C456.441 147.267 456.04 147.532 455.683 147.746C455.351 147.943 455.072 148.102 454.845 148.224C454.565 148.383 454.351 148.496 454.202 148.563L447.335 138.898C446.467 139.554 445.695 140.181 445.021 140.778C444.372 141.356 443.814 141.87 443.348 142.319C442.796 142.868 442.323 143.362 441.927 143.8C441.931 143.915 441.975 144.06 442.06 144.235C442.127 144.384 442.23 144.585 442.371 144.839C442.556 145.1 442.788 145.426 443.066 145.817C443.529 146.469 444.004 147.054 444.49 147.573C445.02 148.099 445.548 148.509 446.071 148.804C446.595 149.1 447.123 149.235 447.655 149.21C448.232 149.193 448.794 148.99 449.342 148.601L450.843 150.714C449.747 151.492 448.71 151.856 447.732 151.805C446.772 151.78 445.864 151.523 445.006 151.034C444.192 150.552 443.45 149.921 442.778 149.142C442.107 148.363 441.512 147.608 440.993 146.878C439.863 145.286 439.055 143.819 438.571 142.474C438.132 141.138 438.015 139.867 438.219 138.662C438.467 137.465 439.054 136.302 439.98 135.174C440.931 134.027 442.242 132.86 443.911 131.674C445.581 130.488 447.082 129.618 448.415 129.063C449.793 128.516 451.075 128.332 452.261 128.509C453.473 128.669 454.635 129.198 455.745 130.097C456.899 131.004 458.097 132.332 459.339 134.079ZM456.092 133.736C455.426 134.014 454.716 134.341 453.964 134.719C453.308 135.067 452.548 135.489 451.684 135.985C450.846 136.463 449.957 137.035 449.018 137.702L451.715 141.498C452.773 140.667 453.679 139.926 454.432 139.273C455.211 138.602 455.838 138.019 456.311 137.526C456.89 136.958 457.354 136.451 457.705 136.006C457.675 135.909 457.65 135.79 457.628 135.649C457.58 135.526 457.513 135.377 457.428 135.202C457.361 135.053 457.263 134.887 457.133 134.704C457.004 134.522 456.879 134.375 456.761 134.263C456.642 134.151 456.532 134.052 456.432 133.966C456.306 133.899 456.193 133.822 456.092 133.736Z" fill="#BBB082"/>
<path d="M469.139 151.028L470.493 153.515L475.181 159.216L472.483 160.685C472.583 160.667 472.805 160.673 473.15 160.704C473.538 160.748 473.98 160.89 474.475 161.13C475.014 161.384 475.571 161.772 476.148 162.296C476.768 162.833 477.354 163.607 477.905 164.619C478.241 165.238 478.487 165.723 478.643 166.076C478.814 166.456 478.939 166.753 479.018 166.965C479.112 167.205 479.16 167.361 479.163 167.432L471.026 171.862C470.476 170.85 470.213 169.9 470.24 169.011C470.266 168.122 470.459 167.306 470.82 166.564C471.181 165.821 471.623 165.161 472.147 164.584C472.671 164.007 473.163 163.539 473.623 163.179C473.345 163.003 473.018 162.871 472.643 162.784C472.295 162.681 471.928 162.608 471.539 162.565C471.195 162.534 470.858 162.517 470.528 162.514C470.227 162.496 469.991 162.497 469.819 162.517L458.1 168.898L459.454 171.385L457.304 172.556L450.969 160.92L453.119 159.75L454.473 162.237L468.385 154.663L467.031 152.176L469.139 151.028Z" fill="#BBB082"/>
<path d="M487.624 186.32C488.276 187.955 488.652 189.373 488.752 190.573C488.881 191.762 488.735 192.819 488.312 193.746C487.889 194.673 487.166 195.495 486.143 196.213C485.15 196.919 483.836 197.598 482.201 198.249C481.696 198.451 481.244 198.614 480.846 198.738C480.477 198.851 480.168 198.94 479.918 199.005C479.609 199.093 479.375 199.153 479.214 199.182L474.823 188.169C473.824 188.602 472.926 189.029 472.13 189.45C471.363 189.859 470.7 190.227 470.141 190.553C469.475 190.956 468.898 191.324 468.41 191.656C468.386 191.769 468.395 191.921 468.437 192.111C468.466 192.271 468.519 192.491 468.596 192.771C468.715 193.068 468.863 193.44 469.041 193.885C469.337 194.629 469.66 195.309 470.01 195.928C470.402 196.564 470.817 197.087 471.256 197.498C471.696 197.908 472.177 198.164 472.699 198.266C473.264 198.385 473.858 198.321 474.482 198.072L475.442 200.479C474.194 200.977 473.1 201.086 472.162 200.806C471.235 200.555 470.413 200.091 469.694 199.412C469.018 198.752 468.445 197.964 467.977 197.049C467.508 196.133 467.108 195.259 466.776 194.427C466.053 192.614 465.615 190.997 465.462 189.576C465.351 188.174 465.536 186.911 466.019 185.789C466.543 184.684 467.388 183.693 468.554 182.814C469.749 181.924 471.298 181.1 473.2 180.342C475.103 179.583 476.767 179.092 478.193 178.867C479.661 178.661 480.951 178.784 482.061 179.237C483.202 179.678 484.205 180.467 485.071 181.602C485.979 182.756 486.83 184.329 487.624 186.32ZM484.551 185.221C483.837 185.333 483.071 185.484 482.25 185.673C481.531 185.856 480.693 186.087 479.736 186.365C478.809 186.632 477.81 186.978 476.74 187.405L478.465 191.73C479.689 191.173 480.745 190.666 481.63 190.209C482.546 189.741 483.292 189.322 483.869 188.955C484.565 188.539 485.136 188.157 485.582 187.807C485.576 187.706 485.579 187.584 485.591 187.441C485.573 187.31 485.544 187.15 485.502 186.96C485.473 186.799 485.417 186.615 485.334 186.407C485.251 186.199 485.165 186.027 485.076 185.89C484.987 185.753 484.904 185.631 484.827 185.524C484.72 185.429 484.628 185.328 484.551 185.221Z" fill="#BBB082"/>
</svg>
